<svg xmlns="http://www.w3.org/2000/svg" viewBox="0 0 32 32" id="analysis">
  <path fill="#303238" d="M20,28h-3v-7c0-.552-.447-1-1-1s-1,.448-1,1v7h-3c-.553,0-1,.448-1,1s.447,1,1,1h8c.553,0,1-.448,1-1s-.447-1-1-1Z"></path>
  <rect width="28" height="20" x="2" y="2" fill="#68c6f0" rx="3" ry="3"></rect>
  <path fill="#ebf6fd" d="M23.814,6.728c-.062-.549-.538-.948-1.106-.881l-2.981,.339c-.549,.062-.942,.558-.88,1.106,.062,.548,.536,.941,1.106,.881l.645-.073-4.781,5.577-2.263-1.508c-.395-.264-.925-.212-1.262,.125l-4,4c-.391,.391-.391,1.023,0,1.414,.195,.195,.451,.293,.707,.293s.512-.098,.707-.293l3.42-3.42,2.318,1.545c.423,.282,.985,.203,1.313-.181l5.349-6.24,.06,.523c.058,.511,.49,.887,.992,.887,.037,0,.075-.002,.114-.006,.549-.062,.942-.558,.88-1.106l-.339-2.98Z"></path>
</svg>
