<svg xmlns="http://www.w3.org/2000/svg" viewBox="0 0 48 48" id="eye-scanner">
  <path fill="#e9f1ff" d="M41.42285,21.93652,38.519,18.87207a19.9978,19.9978,0,0,0-29.03808,0L6.57715,21.93652a3.00062,3.00062,0,0,0,0,4.127L9.481,29.12793a19.9978,19.9978,0,0,0,29.03808,0l2.90381-3.06445A3.00062,3.00062,0,0,0,41.42285,21.93652Z"></path>
  <circle cx="24" cy="24" r="11.5" fill="#77d4f5"></circle>
  <path d="M14.25641 5H8.41026a5.36534 5.36534 0 00-5.359 5.359v5.84616a1.46154 1.46154 0 002.92308 0V10.359a2.43845 2.43845 0 012.4359-2.43589h5.84615a1.46154 1.46154 0 000-2.92308zM39.58974 5H33.74359a1.46154 1.46154 0 100 2.92308h5.84615a2.43845 2.43845 0 012.4359 2.43589v5.84616a1.46154 1.46154 0 102.92308 0V10.359A5.36534 5.36534 0 0039.58974 5zM43.48718 30.33333a1.46314 1.46314 0 00-1.46154 1.46154V37.641a2.43845 2.43845 0 01-2.4359 2.43589H33.74359a1.46154 1.46154 0 000 2.92308h5.84615a5.36534 5.36534 0 005.359-5.359V31.79487A1.46314 1.46314 0 0043.48718 30.33333zM14.25641 40.07692H8.41026A2.43845 2.43845 0 015.97436 37.641V31.79487a1.46154 1.46154 0 00-2.92308 0V37.641A5.36534 5.36534 0 008.41026 43h5.84615a1.46154 1.46154 0 100-2.92308z"></path>
  <circle cx="24" cy="24" r="6" fill="#3e4f55"></circle>
  <circle cx="28" cy="20" r="3" fill="#e9f1ff"></circle>
  <path fill="#232323" d="M24,35.82813a18.8263,18.8263,0,0,1-13.79346-5.9336L6.57715,26.06348a3.00062,3.00062,0,0,1,0-4.127l3.62939-3.83105a18.99921,18.99921,0,0,1,27.58692,0l3.62939,3.83105a3.00062,3.00062,0,0,1,0,4.127l-3.62939,3.83105A18.8263,18.8263,0,0,1,24,35.82813Zm0-21.65625a16.84539,16.84539,0,0,0-12.34131,5.30859L8.0293,23.31152h0a1.00118,1.00118,0,0,0,0,1.377l3.62939,3.83105a16.9997,16.9997,0,0,0,24.68262,0l3.62939-3.83105a1.00118,1.00118,0,0,0,0-1.377l-3.62939-3.83105A16.84539,16.84539,0,0,0,24,14.17188ZM7.30322,22.624h0Z"></path>
  <path fill="#232323" d="M24,35.5A11.5,11.5,0,1,1,35.5,24a11.39267,11.39267,0,0,1-1.15039,5.01855.99975.99975,0,1,1-1.79883-.873A9.41593,9.41593,0,0,0,33.5,24,9.5,9.5,0,1,0,24,33.5a1,1,0,0,1,0,2Z"></path>
  <path fill="#232323" d="M24,31a7,7,0,1,1,1.49414-13.83691.99966.99966,0,0,1,.70557,1.36914A2.44654,2.44654,0,0,0,26,19.5,2.50263,2.50263,0,0,0,28.5,22a2.43159,2.43159,0,0,0,.96484-.19922,1.00029,1.00029,0,0,1,1.37207.70508A6.9927,6.9927,0,0,1,24,31Zm0-12a5,5,0,1,0,5,5v-.02832A4.49987,4.49987,0,0,1,24.02783,19Z"></path>
</svg>
