<svg xmlns="http://www.w3.org/2000/svg" width="96" height="96" fill="none" viewBox="0 0 96 96" id="sound-bars">
  <path fill="url(#paint0_linear_707_11)" fill-rule="evenodd" d="M76 13.5C74.6193 13.5 73.5 14.6193 73.5 16C73.5 17.3807 74.6193 18.5 76 18.5L84 18.5C85.3807 18.5 86.5 17.3807 86.5 16C86.5 14.6193 85.3807 13.5 84 13.5H76ZM30.5 18C30.5 16.6193 31.6193 15.5 33 15.5L41 15.5C42.3807 15.5 43.5 16.6193 43.5 18C43.5 19.3807 42.3807 20.5 41 20.5L33 20.5C31.6193 20.5 30.5 19.3807 30.5 18ZM54 20.5C52.6193 20.5 51.5 21.6193 51.5 23C51.5 24.3807 52.6193 25.5 54 25.5L62 25.5C63.3807 25.5 64.5 24.3807 64.5 23C64.5 21.6193 63.3807 20.5 62 20.5L54 20.5ZM9.5 29C9.5 27.6193 10.6193 26.5 12 26.5L20 26.5C21.3807 26.5 22.5 27.6193 22.5 29C22.5 30.3807 21.3807 31.5 20 31.5H12C10.6193 31.5 9.5 30.3807 9.5 29ZM73.5 34C73.5 32.067 75.067 30.5 77 30.5H82C83.933 30.5 85.5 32.067 85.5 34V84.5H87C88.3807 84.5 89.5 85.6193 89.5 87C89.5 88.3807 88.3807 89.5 87 89.5L85.5 89.5H83H76H73.5H64.5H62H55H52.5H43.5H41H34H31.5H22.5H20H13H10.5H8C6.61929 89.5 5.5 88.3807 5.5 87C5.5 85.6193 6.61929 84.5 8 84.5H10.5V68C10.5 66.067 12.067 64.5 14 64.5H19C20.933 64.5 22.5 66.067 22.5 68V84.5H31.5V39C31.5 37.067 33.067 35.5 35 35.5H40C41.933 35.5 43.5 37.067 43.5 39V84.5L52.5 84.5V62C52.5 60.067 54.067 58.5 56 58.5H61C62.933 58.5 64.5 60.067 64.5 62V84.5H73.5V34ZM78.5 84.5H80.5V35.5H78.5V84.5ZM59.5 84.5V63.5H57.5V84.5H59.5ZM38.5 84.5V40.5H36.5V84.5H38.5ZM17.5 84.5V69.5H15.5V84.5H17.5ZM9.5 59C9.5 57.6193 10.6193 56.5 12 56.5H20C21.3807 56.5 22.5 57.6193 22.5 59C22.5 60.3807 21.3807 61.5 20 61.5H12C10.6193 61.5 9.5 60.3807 9.5 59ZM54 40.5C52.6193 40.5 51.5 41.6193 51.5 43C51.5 44.3807 52.6193 45.5 54 45.5H62C63.3807 45.5 64.5 44.3807 64.5 43C64.5 41.6193 63.3807 40.5 62 40.5H54ZM51.5 53C51.5 51.6193 52.6193 50.5 54 50.5H62C63.3807 50.5 64.5 51.6193 64.5 53C64.5 54.3807 63.3807 55.5 62 55.5H54C52.6193 55.5 51.5 54.3807 51.5 53ZM12 46.5C10.6193 46.5 9.5 47.6193 9.5 49C9.5 50.3807 10.6193 51.5 12 51.5H20C21.3807 51.5 22.5 50.3807 22.5 49C22.5 47.6193 21.3807 46.5 20 46.5H12ZM51.5 33C51.5 31.6193 52.6193 30.5 54 30.5H62C63.3807 30.5 64.5 31.6193 64.5 33C64.5 34.3807 63.3807 35.5 62 35.5H54C52.6193 35.5 51.5 34.3807 51.5 33ZM12 36.5C10.6193 36.5 9.5 37.6193 9.5 39C9.5 40.3807 10.6193 41.5 12 41.5H20C21.3807 41.5 22.5 40.3807 22.5 39C22.5 37.6193 21.3807 36.5 20 36.5H12ZM33 25.5C31.6193 25.5 30.5 26.6193 30.5 28C30.5 29.3807 31.6193 30.5 33 30.5H41C42.3807 30.5 43.5 29.3807 43.5 28C43.5 26.6193 42.3807 25.5 41 25.5L33 25.5ZM73.5 25C73.5 23.6193 74.6193 22.5 76 22.5L84 22.5C85.3807 22.5 86.5 23.6193 86.5 25C86.5 26.3807 85.3807 27.5 84 27.5L76 27.5C74.6193 27.5 73.5 26.3807 73.5 25Z" clip-rule="evenodd"></path>
  <defs>
    <linearGradient id="paint0_linear_707_11" x1="47.5" x2="47.5" y1="13.5" y2="89.5" gradientUnits="userSpaceOnUse">
      <stop stop-color="#D9008F"></stop>
      <stop offset="1" stop-color="#FA6900"></stop>
    </linearGradient>
  </defs>
</svg>
